<mxfile host="app.diagrams.net" modified="2021-02-20T02:29:45.055Z" agent="5.0 (Macintosh; Intel Mac OS X 10_15_6) AppleWebKit/537.36 (KHTML, like Gecko) Chrome/88.0.4324.182 Safari/537.36" etag="P3TpwysgXg4td9gw3fJr" version="14.4.2" type="github">
  <diagram id="C5RBs43oDa-KdzZeNtuy" name="Page-1">
    <mxGraphModel dx="946" dy="646" grid="1" gridSize="10" guides="1" tooltips="1" connect="1" arrows="1" fold="1" page="1" pageScale="1" pageWidth="827" pageHeight="1169" math="0" shadow="0">
      <root>
        <mxCell id="WIyWlLk6GJQsqaUBKTNV-0" />
        <mxCell id="WIyWlLk6GJQsqaUBKTNV-1" parent="WIyWlLk6GJQsqaUBKTNV-0" />
        <mxCell id="p3CJ382U-4Kr4i2dBVAz-11" value="&lt;p style=&quot;margin: 0px ; margin-top: 4px ; text-align: center&quot;&gt;«interface»&lt;br&gt;&lt;b&gt;IBaseView&amp;lt;T&amp;gt;&lt;/b&gt;&lt;br&gt;&lt;/p&gt;&lt;p style=&quot;margin: 0px ; margin-left: 4px&quot;&gt;&lt;br&gt;&lt;/p&gt;&lt;hr size=&quot;1&quot;&gt;&lt;p style=&quot;margin: 0px ; margin-left: 4px&quot;&gt;+ setPresent(T present): void&lt;br&gt;&lt;/p&gt;" style="verticalAlign=top;align=left;overflow=fill;fontSize=12;fontFamily=Helvetica;html=1;" vertex="1" parent="WIyWlLk6GJQsqaUBKTNV-1">
          <mxGeometry x="110" y="100" width="170" height="90" as="geometry" />
        </mxCell>
        <mxCell id="p3CJ382U-4Kr4i2dBVAz-13" value="&lt;p style=&quot;margin: 0px ; margin-top: 4px ; text-align: center&quot;&gt;«interface»&lt;br&gt;&lt;b&gt;IBasePresent&lt;/b&gt;&lt;br&gt;&lt;/p&gt;&lt;p style=&quot;margin: 0px ; margin-left: 4px&quot;&gt;&lt;br&gt;&lt;/p&gt;&lt;hr size=&quot;1&quot;&gt;&lt;p style=&quot;margin: 0px ; margin-left: 4px&quot;&gt;+ start(): void&lt;br&gt;&lt;/p&gt;" style="verticalAlign=top;align=left;overflow=fill;fontSize=12;fontFamily=Helvetica;html=1;" vertex="1" parent="WIyWlLk6GJQsqaUBKTNV-1">
          <mxGeometry x="540" y="100" width="170" height="90" as="geometry" />
        </mxCell>
        <mxCell id="p3CJ382U-4Kr4i2dBVAz-14" value="«interface»&lt;br&gt;&lt;b&gt;ITaskDetailContract&lt;/b&gt;" style="html=1;" vertex="1" parent="WIyWlLk6GJQsqaUBKTNV-1">
          <mxGeometry x="250" y="260" width="270" height="80" as="geometry" />
        </mxCell>
        <mxCell id="p3CJ382U-4Kr4i2dBVAz-16" value="" style="rounded=0;whiteSpace=wrap;html=1;" vertex="1" parent="WIyWlLk6GJQsqaUBKTNV-1">
          <mxGeometry x="250" y="340" width="270" height="140" as="geometry" />
        </mxCell>
        <mxCell id="p3CJ382U-4Kr4i2dBVAz-17" value="«interface»&lt;br&gt;&lt;b&gt;View&lt;/b&gt;" style="html=1;" vertex="1" parent="WIyWlLk6GJQsqaUBKTNV-1">
          <mxGeometry x="260" y="370" width="110" height="50" as="geometry" />
        </mxCell>
        <mxCell id="p3CJ382U-4Kr4i2dBVAz-18" value="«interface»&lt;br&gt;&lt;b&gt;Present&lt;/b&gt;" style="html=1;" vertex="1" parent="WIyWlLk6GJQsqaUBKTNV-1">
          <mxGeometry x="380" y="370" width="110" height="50" as="geometry" />
        </mxCell>
        <mxCell id="p3CJ382U-4Kr4i2dBVAz-21" value="Extends" style="endArrow=block;endSize=16;endFill=0;html=1;exitX=0;exitY=0.5;exitDx=0;exitDy=0;entryX=0.371;entryY=0.989;entryDx=0;entryDy=0;entryPerimeter=0;" edge="1" parent="WIyWlLk6GJQsqaUBKTNV-1" source="p3CJ382U-4Kr4i2dBVAz-17" target="p3CJ382U-4Kr4i2dBVAz-11">
          <mxGeometry x="0.1058" width="160" relative="1" as="geometry">
            <mxPoint x="40" y="409.5" as="sourcePoint" />
            <mxPoint x="200" y="409.5" as="targetPoint" />
            <Array as="points">
              <mxPoint x="173" y="395" />
            </Array>
            <mxPoint as="offset" />
          </mxGeometry>
        </mxCell>
        <mxCell id="p3CJ382U-4Kr4i2dBVAz-22" value="Extends" style="endArrow=block;endSize=16;endFill=0;html=1;entryX=0.5;entryY=1;entryDx=0;entryDy=0;" edge="1" parent="WIyWlLk6GJQsqaUBKTNV-1" target="p3CJ382U-4Kr4i2dBVAz-13">
          <mxGeometry x="0.3623" width="160" relative="1" as="geometry">
            <mxPoint x="490" y="400" as="sourcePoint" />
            <mxPoint x="650" y="400" as="targetPoint" />
            <Array as="points">
              <mxPoint x="625" y="400" />
            </Array>
            <mxPoint as="offset" />
          </mxGeometry>
        </mxCell>
        <mxCell id="p3CJ382U-4Kr4i2dBVAz-23" value="TaskDetailActivity" style="swimlane;fontStyle=1;align=center;verticalAlign=top;childLayout=stackLayout;horizontal=1;startSize=26;horizontalStack=0;resizeParent=1;resizeParentMax=0;resizeLast=0;collapsible=1;marginBottom=0;" vertex="1" parent="WIyWlLk6GJQsqaUBKTNV-1">
          <mxGeometry x="90" y="520" width="160" height="86" as="geometry" />
        </mxCell>
        <mxCell id="p3CJ382U-4Kr4i2dBVAz-24" value="+ field: taskDetaiPresent" style="text;strokeColor=none;fillColor=none;align=left;verticalAlign=top;spacingLeft=4;spacingRight=4;overflow=hidden;rotatable=0;points=[[0,0.5],[1,0.5]];portConstraint=eastwest;" vertex="1" parent="p3CJ382U-4Kr4i2dBVAz-23">
          <mxGeometry y="26" width="160" height="26" as="geometry" />
        </mxCell>
        <mxCell id="p3CJ382U-4Kr4i2dBVAz-25" value="" style="line;strokeWidth=1;fillColor=none;align=left;verticalAlign=middle;spacingTop=-1;spacingLeft=3;spacingRight=3;rotatable=0;labelPosition=right;points=[];portConstraint=eastwest;" vertex="1" parent="p3CJ382U-4Kr4i2dBVAz-23">
          <mxGeometry y="52" width="160" height="8" as="geometry" />
        </mxCell>
        <mxCell id="p3CJ382U-4Kr4i2dBVAz-26" value="+ showDetail(TaskDetail detal): void" style="text;strokeColor=none;fillColor=none;align=left;verticalAlign=top;spacingLeft=4;spacingRight=4;overflow=hidden;rotatable=0;points=[[0,0.5],[1,0.5]];portConstraint=eastwest;" vertex="1" parent="p3CJ382U-4Kr4i2dBVAz-23">
          <mxGeometry y="60" width="160" height="26" as="geometry" />
        </mxCell>
        <mxCell id="p3CJ382U-4Kr4i2dBVAz-27" value="" style="endArrow=block;dashed=1;endFill=0;endSize=12;html=1;entryX=0.5;entryY=1;entryDx=0;entryDy=0;exitX=1;exitY=0.5;exitDx=0;exitDy=0;" edge="1" parent="WIyWlLk6GJQsqaUBKTNV-1" source="p3CJ382U-4Kr4i2dBVAz-24" target="p3CJ382U-4Kr4i2dBVAz-17">
          <mxGeometry width="160" relative="1" as="geometry">
            <mxPoint x="180" y="520" as="sourcePoint" />
            <mxPoint x="340" y="520" as="targetPoint" />
            <Array as="points">
              <mxPoint x="315" y="559" />
            </Array>
          </mxGeometry>
        </mxCell>
        <mxCell id="p3CJ382U-4Kr4i2dBVAz-28" value="TaskDetailPresent" style="swimlane;fontStyle=1;align=center;verticalAlign=top;childLayout=stackLayout;horizontal=1;startSize=26;horizontalStack=0;resizeParent=1;resizeParentMax=0;resizeLast=0;collapsible=1;marginBottom=0;" vertex="1" parent="WIyWlLk6GJQsqaUBKTNV-1">
          <mxGeometry x="360" y="510" width="300" height="124" as="geometry" />
        </mxCell>
        <mxCell id="p3CJ382U-4Kr4i2dBVAz-29" value="- tasksRepository: TasksRepository&#xa;-taskDetailView: ITaskDetailContract.View" style="text;strokeColor=none;fillColor=none;align=left;verticalAlign=top;spacingLeft=4;spacingRight=4;overflow=hidden;rotatable=0;points=[[0,0.5],[1,0.5]];portConstraint=eastwest;" vertex="1" parent="p3CJ382U-4Kr4i2dBVAz-28">
          <mxGeometry y="26" width="300" height="34" as="geometry" />
        </mxCell>
        <mxCell id="p3CJ382U-4Kr4i2dBVAz-30" value="" style="line;strokeWidth=1;fillColor=none;align=left;verticalAlign=middle;spacingTop=-1;spacingLeft=3;spacingRight=3;rotatable=0;labelPosition=right;points=[];portConstraint=eastwest;" vertex="1" parent="p3CJ382U-4Kr4i2dBVAz-28">
          <mxGeometry y="60" width="300" height="8" as="geometry" />
        </mxCell>
        <mxCell id="p3CJ382U-4Kr4i2dBVAz-31" value="+ TaskDetailPresent(view:ITaskDetailContract.View&#xa;,tasksRepository:TasksRepository)&#xa;+ showTask():void" style="text;strokeColor=none;fillColor=none;align=left;verticalAlign=top;spacingLeft=4;spacingRight=4;overflow=hidden;rotatable=0;points=[[0,0.5],[1,0.5]];portConstraint=eastwest;" vertex="1" parent="p3CJ382U-4Kr4i2dBVAz-28">
          <mxGeometry y="68" width="300" height="56" as="geometry" />
        </mxCell>
        <mxCell id="p3CJ382U-4Kr4i2dBVAz-33" value="" style="endArrow=block;dashed=1;endFill=0;endSize=12;html=1;entryX=0.5;entryY=1;entryDx=0;entryDy=0;exitX=0.543;exitY=0.008;exitDx=0;exitDy=0;exitPerimeter=0;" edge="1" parent="WIyWlLk6GJQsqaUBKTNV-1" source="p3CJ382U-4Kr4i2dBVAz-28">
          <mxGeometry width="160" relative="1" as="geometry">
            <mxPoint x="390" y="559" as="sourcePoint" />
            <mxPoint x="430" y="420" as="targetPoint" />
            <Array as="points">
              <mxPoint x="523" y="500" />
              <mxPoint x="430" y="500" />
            </Array>
          </mxGeometry>
        </mxCell>
        <mxCell id="p3CJ382U-4Kr4i2dBVAz-34" value="TasksRepository" style="swimlane;fontStyle=1;align=center;verticalAlign=top;childLayout=stackLayout;horizontal=1;startSize=26;horizontalStack=0;resizeParent=1;resizeParentMax=0;resizeLast=0;collapsible=1;marginBottom=0;" vertex="1" parent="WIyWlLk6GJQsqaUBKTNV-1">
          <mxGeometry x="420" y="710" width="190" height="60" as="geometry" />
        </mxCell>
        <mxCell id="p3CJ382U-4Kr4i2dBVAz-36" value="" style="line;strokeWidth=1;fillColor=none;align=left;verticalAlign=middle;spacingTop=-1;spacingLeft=3;spacingRight=3;rotatable=0;labelPosition=right;points=[];portConstraint=eastwest;" vertex="1" parent="p3CJ382U-4Kr4i2dBVAz-34">
          <mxGeometry y="26" width="190" height="8" as="geometry" />
        </mxCell>
        <mxCell id="p3CJ382U-4Kr4i2dBVAz-37" value="+ getTask(String id): TaskDetail" style="text;strokeColor=none;fillColor=none;align=left;verticalAlign=top;spacingLeft=4;spacingRight=4;overflow=hidden;rotatable=0;points=[[0,0.5],[1,0.5]];portConstraint=eastwest;" vertex="1" parent="p3CJ382U-4Kr4i2dBVAz-34">
          <mxGeometry y="34" width="190" height="26" as="geometry" />
        </mxCell>
        <mxCell id="p3CJ382U-4Kr4i2dBVAz-38" value="" style="endArrow=diamondThin;endFill=0;endSize=24;html=1;exitX=0.5;exitY=0;exitDx=0;exitDy=0;" edge="1" parent="WIyWlLk6GJQsqaUBKTNV-1" source="p3CJ382U-4Kr4i2dBVAz-34">
          <mxGeometry width="160" relative="1" as="geometry">
            <mxPoint x="355" y="634" as="sourcePoint" />
            <mxPoint x="515" y="634" as="targetPoint" />
          </mxGeometry>
        </mxCell>
        <mxCell id="p3CJ382U-4Kr4i2dBVAz-39" value="" style="endArrow=diamondThin;endFill=0;endSize=24;html=1;exitX=0;exitY=1.147;exitDx=0;exitDy=0;exitPerimeter=0;" edge="1" parent="WIyWlLk6GJQsqaUBKTNV-1" source="p3CJ382U-4Kr4i2dBVAz-29">
          <mxGeometry width="160" relative="1" as="geometry">
            <mxPoint x="175" y="712" as="sourcePoint" />
            <mxPoint x="165" y="606" as="targetPoint" />
            <Array as="points">
              <mxPoint x="360" y="640" />
              <mxPoint x="165" y="640" />
              <mxPoint x="165" y="630" />
            </Array>
          </mxGeometry>
        </mxCell>
      </root>
    </mxGraphModel>
  </diagram>
</mxfile>
